<svg xmlns="http://www.w3.org/2000/svg" viewBox="0 0 100 100">
  <defs>
    <style>
      .sun { fill: #FFD700; }
      .cloud { fill: #87CEEB; }
    </style>
  </defs>
  
  <!-- Sun -->
  <circle cx="50" cy="50" r="25" class="sun"/>
  
  <!-- Sun rays -->
  <g class="sun">
    <rect x="48" y="5" width="4" height="12" rx="2"/>
    <rect x="48" y="83" width="4" height="12" rx="2"/>
    <rect x="5" y="48" width="12" height="4" rx="2"/>
    <rect x="83" y="48" width="12" height="4" rx="2"/>
    
    <rect x="22.5" y="20.5" width="4" height="8" rx="2" transform="rotate(45 24.5 24.5)"/>
    <rect x="73.5" y="71.5" width="4" height="8" rx="2" transform="rotate(45 75.5 75.5)"/>
    <rect x="71.5" y="22.5" width="4" height="8" rx="2" transform="rotate(-45 73.5 24.5)"/>
    <rect x="20.5" y="73.5" width="4" height="8" rx="2" transform="rotate(-45 22.5 75.5)"/>
  </g>
  
  <!-- Small cloud -->
  <g class="cloud" opacity="0.8">
    <circle cx="35" cy="35" r="8"/>
    <circle cx="42" cy="32" r="6"/>
    <circle cx="28" cy="32" r="5"/>
    <rect x="23" y="32" width="24" height="8" rx="4"/>
  </g>
</svg>